<?xml version="1.0" encoding="utf-8"?>
<!-- Generator: Adobe Illustrator 27.2.0, SVG Export Plug-In . SVG Version: 6.00 Build 0)  -->
<svg version="1.1" id="Layer_1" xmlns="http://www.w3.org/2000/svg" xmlns:xlink="http://www.w3.org/1999/xlink" x="0px" y="0px"
	 viewBox="0 0 591 591" style="enable-background:new 0 0 591 591;" xml:space="preserve">
<style type="text/css">
	.st0{fill:#00FFBB;}
	.st1{fill:#9370DB;}
	.st2{fill:#BFFFEE;}
	.st3{fill:#F6F3F3;}
	.st4{fill:#F6F4F4;}
</style>
<path class="st0" d="M529.5,108c-0.2,288.9-0.3,461.7-0.3,461.7c0,0.4,0,0.8,0,1.2c-0.1,0.3-0.2,0.7-0.3,1.1c0,0-0.5,1.7-1.3,3.4
	c-1.8,3.8-5,6.7-5,6.7c-2.8,2.5-4.3,4.1-6.4,5.5c-0.5,0.3-2.1,1.3-4.4,2.4c-1.3,0.6-2.4,1-3.3,1.3c-0.9,0.2-2.3,0.5-4,0.7
	c-1.9,0.2-3.1,0.2-6.9,0.2c-6.9,0-6.9,0-7.7,0c-3.1,0-4.4-0.1-6.8-0.2c-4.4-0.1-7.4-0.1-11.1-0.1c-6.8,0-13.5,0-20.3,0
	c-7.2,0-14.3,0-21.5,0c-0.2,0-9.1,0-9.2,0c-11.3,0-286.4,0.1-295.2-0.2c-0.6,0-2.4-0.1-5-0.1c-1.8,0-2.6,0.1-4.2,0.1
	c-1.7-0.1-3.1-0.3-4-0.4c-1.7-0.6-3.9-1.5-6.4-3c-1.1-0.7-6.9-4.4-10.8-11.1c-2.7-4.7-4-10.2-4-16.3c-0.1-28.6,0-57.2,0.3-85.9
	c2.5-0.3,4.7-0.6,6.8-0.6c109.7,0,219.3,0,329,0c2.5,0,5,0,7.5-0.2c19.6-1.2,33.5-15.4,33.5-35.2c0.2-48,0.2-96,0-144
	c-0.1-20.5-15-35.1-35.6-35.1c-45.2-0.1-90.3,0-135.5,0c-68.3,0-136.7,0-205.1-0.4c-0.1-29.9-0.1-59.3-0.2-88.8
	c0-1.9-0.6-3.8-0.9-6.2c0-44,0-87.6,0.1-131.2c0-13.4,5.3-23.9,17.6-30.2c0.6-0.3,0.9-1.4,1.4-2.1c103.7,0,207.4,0,311.5,0.5
	c0.5,29.5,0.5,58.4,0.5,87.4c0,3.2,0.2,9.8,4.8,14.3c4.5,4.5,11.1,4.7,14.2,4.7C454,108.2,486.1,108.4,529.5,108z M178.1,212.8
	c90.2,0,180.3,0,270.5,0c1.7,0,3.3,0.1,5-0.1c8.9-0.8,14.9-7.3,15.1-16.2c0.1-3.7-0.3-7.4,0.1-11c1.2-12.5-7.1-19.9-19.6-19.9
	c-92.1,0.3-184.3,0.2-276.4,0.2c-1.5,0-3,0-4.5,0.1c-7.4,0.4-13.4,5.3-14.7,12.6c-0.6,3.2-0.4,6.6-0.6,9.9
	C151.4,206.4,158.5,214.2,178.1,212.8 M380.3,91.7c0.4-8.3-1.8-15.4-10.1-18.7c-3.3-1.3-7.2-1.4-10.8-1.4
	c-61.8-0.1-123.6-0.1-185.4-0.1c-1.8,0-3.7,0-5.5,0.2c-9.3,0.8-15.2,7-15.6,16.3c-0.1,3.3,0,6.7,0,10c0,15,5.8,20.7,20.9,20.7
	c62,0,123.9,0,185.9,0c1.7,0,3.3,0,5-0.1c9.3-0.9,15.2-7,15.6-16.4C380.4,98.9,380.3,95.8,380.3,91.7z"/>
<path class="st1" d="M92.7,259.9c25.6,0,64.4-0.1,111.9-0.1c93.5,0,91.7,0.1,93,0c0,0,77.2-0.1,135.5,0c20.5,0,35.5,14.6,35.6,35.1
	c0.2,48,0.2,96,0,144c-0.1,19.8-13.9,34-33.5,35.2c-2.5,0.1-5,0.2-7.5,0.2c-109.7,0-219.3,0-329,0c-2.1,0-4.3,0.3-7.3,0.5
	c-8.7,0.1-16.5,0.3-24.3,0c-5-0.2-10.2-0.6-15.1-1.9c-6.9-1.8-12.8-4.7-17.7-8.7c-2-1.6-10.7-8.9-14.8-21.5c-0.7-2.1-1.1-3.8-1.3-5
	c-0.3-0.9-0.5-2.2-0.7-3.8c-0.1-1.7,0-3,0-3.2c0.2-2.2-0.1-18.6,0-97.8c0-23.8,0.1-59.1,0.3-108.4c0.8,0.4,1.4,1.2,1.7,2.1
	c5.5,15.8,12,19.2,17.1,24.3c4.5,4.4,10,5.6,21.2,7.9C65.5,260.5,77.5,262.1,92.7,259.9z M270.2,303.8c-5.3-2.6-10.5-6.9-16-7.3
	c-14-1-28.2-0.4-42.5-0.4c0,47.3,0,94.7,0,141.6c14.9,0,29.5,0.9,44-0.3c11.4-1,18.7-8.8,21.7-20c1.1-4,1.8-8.2,1.8-12.3
	c0.2-25.5,0.2-51,0-76.4C279.2,319.8,277.2,311.2,270.2,303.8 M132.6,390.5c0,15.9,0,31.8,0,47.9c7.8,0,14.9,0,22.7,0
	c0-19.4,0-38.5,0-58.3c5.7,0,10.9,0.3,16-0.1c14-1,24.3-8.7,26-22.5c1.6-12.9,1.5-26.2,0-39.1c-1.4-12.5-10.1-20.7-22.6-21.8
	c-13.8-1.2-27.8-0.3-42.1-0.3C132.6,327.3,132.6,358.4,132.6,390.5 M294.6,400.5c0,12.6,0,25.2,0,37.9c7.8,0,15,0,22.7,0
	c0-20.8,0-41.2,0-62.3c9.9,0,19.2,0,28.6,0c0-7.1,0-13.5,0-20.3c-9.6,0-18.9,0-28.4,0c0-13.4,0-26.4,0-39.9c12.3,0,24.2,0,36.2,0
	c0-7,0-13.5,0-20.1c-19.8,0-39.3,0-59.1,0C294.6,330.6,294.6,365.1,294.6,400.5z"/>
<path class="st1" d="M17.6,213.8c-0.1-3.5,0-8.7,1.9-14.7c0.5-1.7,3.6-10.6,11.8-18.5c9.1-8.8,21.7-13.8,35.8-13.6
	c7.8,0.1,15.6,0,23.8,0c0.8,1.9,1.3,3.8,1.4,5.7c0.1,29.4,0.1,58.9,0.2,88.8c-11.5,0.2-23.2,0.8-34.6-0.6
	C38.6,258.4,26,247,19.6,228.6c-0.3-0.9-0.9-1.6-1.7-2.5C17.8,222,17.7,217.9,17.6,213.8z"/>
<path class="st2" d="M529.5,107.6c-29.3,0.4-58.6,0.4-88,0.4c-12.7,0-19-6.4-19-19.1c0-29,0-58,0-87.4c0.7-0.5,1.5-0.5,2.3-0.2
	c0.4,0.7,0.6,1.1,0.9,1.5c33.7,33.7,67.4,67.4,101.2,101.1c0.6,0.6,1.7,0.8,2.5,1.1C529.5,105.8,529.5,106.5,529.5,107.6z"/>
<path class="st1" d="M177.6,212.8c-19.1,1.4-26.1-6.4-24.7-24.3c0.3-3.3,0-6.7,0.6-9.9c1.3-7.3,7.3-12.2,14.7-12.6
	c1.5-0.1,3-0.1,4.5-0.1c92.2,0,184.3,0.2,276.4-0.2c12.5,0,20.8,7.4,19.6,19.9c-0.4,3.6,0,7.3-0.1,11c-0.2,8.9-6.2,15.4-15.1,16.2
	c-1.7,0.1-3.3,0.1-5,0.1C358.4,212.8,268.2,212.8,177.6,212.8z"/>
<path class="st1" d="M380.3,92.1c0,3.6,0.1,6.8,0,10c-0.4,9.4-6.2,15.5-15.6,16.4c-1.7,0.2-3.3,0.1-5,0.1c-62,0-123.9,0-185.9,0
	c-15.2,0-20.9-5.7-20.9-20.7c0-3.3-0.1-6.7,0-10c0.4-9.3,6.3-15.5,15.6-16.3c1.8-0.2,3.7-0.2,5.5-0.2c61.8,0,123.6,0,185.4,0.1
	c3.6,0,7.5,0.1,10.8,1.4C378.5,76.2,380.7,83.3,380.3,92.1z"/>
<path class="st3" d="M270.4,304.1c6.7,7.1,8.7,15.7,8.8,24.6c0.2,25.5,0.2,51,0,76.4c0,4.1-0.8,8.3-1.8,12.3
	c-3,11.2-10.3,19.1-21.7,20c-14.5,1.2-29.2,0.3-44,0.3c0-46.9,0-94.3,0-141.6c14.3,0,28.4-0.7,42.5,0.4
	C259.7,296.9,264.9,301.3,270.4,304.1 M234.1,403.5c0,4.8,0,9.5,0,14.8c2.4,0,4.2,0,6,0c14,0,16.7-2.6,16.7-16.5
	c0-18.8,0-37.6,0-56.4c0-6.3,0.1-12.7-0.3-19c-0.3-6-3.5-9.5-9.1-10.1c-4.2-0.4-8.5-0.1-13.3-0.1
	C234.1,345.3,234.1,373.9,234.1,403.5z"/>
<path class="st4" d="M132.6,390c0-31.6,0-62.7,0-93.7c14.3,0,28.3-0.9,42.1,0.3c12.5,1.1,21.3,9.3,22.6,21.8
	c1.4,12.9,1.6,26.3,0,39.1c-1.7,13.8-12,21.5-26,22.5c-5.1,0.4-10.3,0.1-16,0.1c0,19.8,0,38.8,0,58.3c-7.8,0-15,0-22.7,0
	C132.6,422.3,132.6,406.4,132.6,390 M176.7,330.7c-0.4-13.4-5.6-16.9-21.2-14.1c0,14.3,0,28.7,0,43.4c3.5,0,6.6,0.1,9.7,0
	c7.5-0.1,11-3.4,11.4-10.9C176.8,343.3,176.6,337.4,176.7,330.7z"/>
<path class="st3" d="M294.6,400c0-34.9,0-69.4,0-104.1c19.8,0,39.3,0,59.1,0c0,6.6,0,13.1,0,20.1c-12,0-23.9,0-36.2,0
	c0,13.4,0,26.5,0,39.9c9.5,0,18.7,0,28.4,0c0,6.8,0,13.2,0,20.3c-9.3,0-18.7,0-28.6,0c0,21.1,0,41.5,0,62.3c-7.7,0-14.9,0-22.7,0
	C294.6,425.7,294.6,413.1,294.6,400z"/>
<path class="st1" d="M234.1,403c0-29.1,0-57.7,0-86.7c4.8,0,9.1-0.3,13.3,0.1c5.6,0.6,8.8,4.1,9.1,10.1c0.4,6.3,0.2,12.6,0.3,19
	c0,18.8,0,37.6,0,56.4c0,13.9-2.7,16.5-16.7,16.5c-1.8,0-3.6,0-6,0C234.1,413,234.1,408.3,234.1,403z"/>
<path class="st1" d="M176.7,331.1c0,6.3,0.1,12.1-0.2,17.9c-0.3,7.5-3.8,10.8-11.4,10.9c-3.1,0.1-6.3,0-9.7,0c0-14.7,0-29.1,0-43.4
	C171.1,313.8,176.3,317.3,176.7,331.1z"/>
</svg>
